<svg width="46" height="46" viewBox="0 0 46 46" fill="none" xmlns="http://www.w3.org/2000/svg">
<g clip-path="url(#clip0)">
<path d="M18.3654 2.81857C17.2413 2.81857 16.1633 3.26401 15.3685 4.0569C14.5737 4.84978 14.1272 5.92517 14.1272 7.04647V8.45578H4.23816C3.11413 8.45578 2.03614 8.90121 1.24133 9.6941C0.446519 10.487 0 11.5624 0 12.6837L0 16.5846L21.5129 22.3064C22.2275 22.4962 22.9795 22.4962 23.6942 22.3064L45.2071 16.5846V12.6837C45.2071 11.5624 44.7606 10.487 43.9657 9.6941C43.1709 8.90121 42.0929 8.45578 40.9689 8.45578H31.0799V7.04647C31.0799 5.92517 30.6333 4.84978 29.8385 4.0569C29.0437 3.26401 27.9657 2.81857 26.8417 2.81857H18.3654ZM18.3654 5.63717H26.8417C27.2164 5.63717 27.5757 5.78565 27.8406 6.04995C28.1056 6.31424 28.2544 6.6727 28.2544 7.04647V8.45578H16.9527V7.04647C16.9527 6.6727 17.1015 6.31424 17.3664 6.04995C17.6314 5.78565 17.9907 5.63717 18.3654 5.63717Z" fill="url(#paint0_linear)"/>
<path d="M0 35.2325C0 36.3538 0.446519 37.4292 1.24133 38.2221C2.03614 39.015 3.11413 39.4604 4.23816 39.4604H40.9689C42.0929 39.4604 43.1709 39.015 43.9657 38.2221C44.7606 37.4292 45.2071 36.3538 45.2071 35.2325V19.3074L22.968 25.218C22.7292 25.2816 22.4779 25.2816 22.2391 25.218L0 19.3074V35.2325Z" fill="url(#paint1_linear)"/>
</g>
<defs>
<linearGradient id="paint0_linear" x1="22.6035" y1="2.62193" x2="22.6035" y2="46.1464" gradientUnits="userSpaceOnUse">
<stop stop-color="#FBC8D4"/>
<stop offset="1" stop-color="#9795F0"/>
</linearGradient>
<linearGradient id="paint1_linear" x1="22.6035" y1="14.6829" x2="22.6035" y2="39.4604" gradientUnits="userSpaceOnUse">
<stop stop-color="#FBC8D4"/>
<stop offset="1" stop-color="#9795F0"/>
</linearGradient>
<clipPath id="clip0">
<rect width="45.2071" height="45.0976" fill="white"/>
</clipPath>
</defs>
</svg>
