<svg width="41" height="39" viewBox="0 0 41 39" fill="none" xmlns="http://www.w3.org/2000/svg">
<path d="M20.7619 0.233398C9.58605 0.233398 0.523895 8.80399 0.523895 19.3737C0.523895 29.9434 9.58605 38.5139 20.7619 38.5139C22.6283 38.5139 24.135 37.0891 24.135 35.3239C24.135 34.4945 23.7977 33.7501 23.258 33.1759C22.7408 32.623 22.4035 31.8786 22.4035 31.0705C22.4035 29.3053 23.9101 27.8805 25.7765 27.8805H29.7566C35.963 27.8805 41 23.1167 41 17.247C41 7.84697 31.9378 0.233398 20.7619 0.233398ZM8.39425 19.3737C6.52785 19.3737 5.02124 17.9488 5.02124 16.1836C5.02124 14.4185 6.52785 12.9936 8.39425 12.9936C10.2606 12.9936 11.7673 14.4185 11.7673 16.1836C11.7673 17.9488 10.2606 19.3737 8.39425 19.3737ZM15.1403 10.8669C13.2739 10.8669 11.7673 9.442 11.7673 7.67684C11.7673 5.91168 13.2739 4.48679 15.1403 4.48679C17.0067 4.48679 18.5133 5.91168 18.5133 7.67684C18.5133 9.442 17.0067 10.8669 15.1403 10.8669ZM26.3836 10.8669C24.5172 10.8669 23.0106 9.442 23.0106 7.67684C23.0106 5.91168 24.5172 4.48679 26.3836 4.48679C28.25 4.48679 29.7566 5.91168 29.7566 7.67684C29.7566 9.442 28.25 10.8669 26.3836 10.8669ZM33.1296 19.3737C31.2632 19.3737 29.7566 17.9488 29.7566 16.1836C29.7566 14.4185 31.2632 12.9936 33.1296 12.9936C34.996 12.9936 36.5027 14.4185 36.5027 16.1836C36.5027 17.9488 34.996 19.3737 33.1296 19.3737Z" fill="url(#paint0_linear)"/>
<defs>
<linearGradient id="paint0_linear" x1="20.7619" y1="0.233398" x2="20.7619" y2="38.5139" gradientUnits="userSpaceOnUse">
<stop stop-color="#FDBB2D"/>
<stop offset="1" stop-color="#92EBEC"/>
</linearGradient>
</defs>
</svg>
